<svg xmlns="http://www.w3.org/2000/svg" xmlns:xlink="http://www.w3.org/1999/xlink" version="1.1" id="Layer_1" x="0px" y="0px" viewBox="0 0 545.1 131.1" enable-background="new 0 0 545.1 131.1" xml:space="preserve">
<g>
	<path fill="#162033" d="M164.8 61.1c0.4-1.3 1-2.4 1.7-3.3c0.7-0.9 1.6-1.6 2.8-2.1c1.1-0.5 2.5-0.8 4.1-0.8c1.4 0 2.6 0.3 3.7 0.8 c1.1 0.5 2.1 1.3 3.2 2.6c0.4 0.4 0.9 0.7 1.4 0.7c0.6 0 1.1-0.1 1.5-0.5l4.4-3.9c0.4-0.4 0.7-0.9 0.7-1.4c0-0.5-0.2-1.1-0.5-1.5 c-1.9-2-4.1-3.6-6.6-4.5c-2.5-1-5.1-1.4-7.8-1.4c-2.8 0-5.4 0.5-7.8 1.5c-2.4 1-4.4 2.4-6.2 4.2c-1.7 1.8-3.1 3.9-4 6.3 c-0.9 2.4-1.4 5-1.4 7.8c0 2.8 0.5 5.4 1.4 7.8c0.9 2.4 2.2 4.5 3.9 6.3c1.7 1.8 3.8 3.2 6.2 4.1c2.4 1 5 1.4 7.9 1.4 c2.7 0 5.3-0.5 7.7-1.4c2.5-1 4.7-2.6 6.5-4.6c0.7-0.8 0.7-2.1-0.1-2.8l-4.2-3.9c-0.4-0.4-1-0.6-1.6-0.6c-0.6 0.1-1.1 0.4-1.5 0.8 c-0.8 1.1-1.8 1.9-2.9 2.5c-1.1 0.5-2.4 0.8-4 0.8c-1.5 0-2.7-0.3-3.8-0.8c-1.1-0.5-2.1-1.2-2.9-2.2c-0.8-1-1.5-2.1-1.9-3.4 c-0.5-1.3-0.7-2.6-0.7-4.1C164.2 63.8 164.4 62.4 164.8 61.1L164.8 61.1z"/>
	<path fill="#162033" d="M215 46.1c-0.5-0.2-1.1-0.3-1.6-0.4h0c-0.5-0.1-0.9-0.1-1.4-0.1c-1.6 0-3.1 0.2-4.5 0.6h0 c-1.4 0.4-2.6 1-3.7 1.7c-0.4 0.3-0.8 0.6-1.2 0.9c0-0.1 0-0.2 0-0.3c0-0.5-0.2-1.1-0.6-1.4c-0.4-0.4-0.9-0.6-1.4-0.6h-5.3 c-0.5 0-1.1 0.2-1.4 0.6c-0.4 0.4-0.6 0.9-0.6 1.4c0 1.2 0 2.4 0.1 3.8c0.1 1.3 0.1 2.7 0.1 4.2v25.6c0 0.5 0.2 1.1 0.6 1.4 c0.4 0.4 0.9 0.6 1.5 0.6h5.6c0.5 0 1.1-0.2 1.4-0.6c0.4-0.4 0.6-0.9 0.6-1.4V65.7c0-3.6 0.7-6.2 2-8c0.6-0.8 1.3-1.4 2.2-1.8 c0.9-0.4 2.1-0.7 3.6-0.7c0.9 0 1.7 0.1 2.4 0.3c0.6 0.2 1.2 0.1 1.8-0.3c0.5-0.4 0.8-0.9 0.9-1.6l0.4-5.7 C216.3 47.3 215.8 46.4 215 46.1z"/>
	<path fill="#162033" d="M250.9 51.1c-1.8-1.8-3.9-3.1-6.4-4.1c-2.5-1-5.1-1.4-7.9-1.4c-2.8 0-5.5 0.5-7.9 1.4 c-2.4 0.9-4.6 2.3-6.4 4.1c-1.8 1.8-3.2 3.8-4.2 6.2v0c-1 2.4-1.5 5.1-1.5 8c0 2.9 0.5 5.5 1.5 8c1 2.4 2.4 4.5 4.2 6.2h0 c1.8 1.8 3.9 3.1 6.4 4.1c2.4 1 5.1 1.4 7.9 1.4c2.8 0 5.5-0.5 7.9-1.4c2.4-0.9 4.6-2.3 6.4-4.1c1.8-1.8 3.2-3.8 4.2-6.2 c1-2.4 1.5-5.1 1.5-8c0-2.9-0.5-5.5-1.5-8C254.1 55 252.7 52.9 250.9 51.1z M236.6 75.7c-1.6 0-2.9-0.3-4.1-0.8 c-1.2-0.5-2.2-1.3-3.1-2.2c-0.9-0.9-1.5-2-2-3.2c-0.5-1.3-0.7-2.7-0.7-4.2c0-1.6 0.2-2.9 0.7-4.2c0.5-1.3 1.1-2.3 2-3.2 c0.9-0.9 1.9-1.6 3.1-2.2c1.2-0.5 2.5-0.8 4.1-0.8c1.6 0 2.9 0.3 4.1 0.8c1.2 0.5 2.2 1.3 3.1 2.2c0.9 0.9 1.5 2 2 3.2 c0.5 1.3 0.7 2.7 0.7 4.2c0 1.6-0.2 2.9-0.7 4.2c-0.5 1.3-1.1 2.3-2 3.2c-0.9 0.9-1.9 1.6-3.1 2.2 C239.5 75.5 238.2 75.7 236.6 75.7z"/>
	<path fill="#162033" d="M311.3 46.5h-6c-0.9 0-1.7 0.6-2 1.5l-5.8 19.8l-6.8-19.9c-0.3-0.8-1.1-1.4-1.9-1.4h-5.9 c-0.9 0-1.7 0.6-1.9 1.4l-6.7 19.9L268.3 48c-0.3-0.9-1.1-1.5-2-1.5h-6.2c-0.7 0-1.3 0.3-1.7 0.9c-0.4 0.5-0.5 1.2-0.3 1.8 l10.9 33.5c0.3 0.8 1.1 1.4 1.9 1.4h5.7c0.9 0 1.7-0.6 1.9-1.4l6.7-20.4l7.6 20.5c0.3 0.8 1.1 1.3 1.9 1.3h5.5 c0.9 0 1.7-0.6 1.9-1.4l10.8-33.5c0.2-0.6 0.1-1.3-0.3-1.8C312.5 46.8 311.9 46.5 311.3 46.5z"/>
	<path fill="#162033" d="M353.9 25.9h-5.6c-0.5 0-1.1 0.2-1.4 0.6c-0.4 0.4-0.6 0.9-0.6 1.4v21c-0.8-0.6-1.6-1.1-2.5-1.6 c-2.3-1.2-4.9-1.7-7.6-1.7c-2.9 0-5.5 0.5-8 1.5c-2.4 1-4.5 2.4-6.3 4.2c-1.7 1.8-3.1 3.9-4 6.3c-1 2.4-1.4 5-1.4 7.8 c0 2.8 0.5 5.4 1.4 7.8c0.9 2.4 2.3 4.5 4 6.2c1.7 1.8 3.7 3.2 6 4.2c2.3 1 4.8 1.5 7.4 1.5c3.3 0 6.3-0.7 8.9-2.2 c0.7-0.4 1.4-0.9 2.1-1.4v0.7c0 0.5 0.2 1.1 0.6 1.4c0.4 0.4 0.9 0.6 1.4 0.6h5.6c0.5 0 1.1-0.2 1.4-0.6c0.4-0.4 0.6-0.9 0.6-1.4 V27.9c0-0.5-0.2-1.1-0.6-1.4C355 26.1 354.4 25.9 353.9 25.9z M340.5 74.9c-1.2 0.5-2.5 0.8-4.1 0.8c-1.6 0-2.9-0.3-4.1-0.8 c-1.2-0.5-2.2-1.3-3.1-2.2c-0.9-0.9-1.5-2-2-3.2v0c-0.5-1.3-0.7-2.7-0.7-4.2c0-1.6 0.2-2.9 0.7-4.2c0.5-1.3 1.1-2.3 2-3.2 c0.9-0.9 1.9-1.6 3.1-2.2c1.2-0.5 2.5-0.8 4.1-0.8c1.6 0 2.9 0.3 4.1 0.8c1.2 0.5 2.2 1.3 3.1 2.2l0 0c0.9 0.9 1.5 2 2 3.2 c0.5 1.3 0.7 2.7 0.7 4.2c0 1.6-0.2 2.9-0.7 4.2c-0.5 1.3-1.1 2.3-2 3.2C342.7 73.7 341.7 74.4 340.5 74.9z"/>
	<path fill="#162033" d="M373.2 25.9h-5.6c-0.5 0-1.1 0.2-1.4 0.6c-0.4 0.4-0.6 0.9-0.6 1.4v54.2c0 0.5 0.2 1.1 0.6 1.4 c0.4 0.4 0.9 0.6 1.4 0.6h5.6c0.5 0 1.1-0.2 1.5-0.6c0.4-0.4 0.6-0.9 0.6-1.4V27.9c0-0.5-0.2-1.1-0.6-1.4 C374.3 26.1 373.8 25.9 373.2 25.9z"/>
	<path fill="#162033" d="M391.5 29.8c-0.8-0.3-1.6-0.5-2.4-0.5c-0.8 0-1.6 0.1-2.4 0.5c-0.8 0.3-1.4 0.8-2 1.4 c-1.1 1.1-1.8 2.7-1.8 4.3c0 1.6 0.6 3.2 1.7 4.4c1.1 1.2 2.8 1.8 4.4 1.8c1.6 0 3.2-0.6 4.4-1.7v0c1.2-1.1 1.8-2.8 1.7-4.4 c0-1.6-0.6-3.2-1.8-4.3C392.9 30.6 392.3 30.1 391.5 29.8z"/>
	<path fill="#162033" d="M391.9 46.5h-5.6c-0.5 0-1.1 0.2-1.5 0.6c-0.4 0.4-0.6 0.9-0.6 1.4v33.5c0 0.5 0.2 1.1 0.6 1.4 c0.4 0.4 0.9 0.6 1.5 0.6h5.6c0.5 0 1.1-0.2 1.4-0.6c0.4-0.4 0.6-0.9 0.6-1.4V48.5c0-0.5-0.2-1.1-0.6-1.4 C393 46.7 392.5 46.5 391.9 46.5z"/>
	<path fill="#162033" d="M432.2 50.1L432.2 50.1c-1.3-1.4-2.9-2.6-4.7-3.3c-1.9-0.8-4.1-1.2-6.5-1.2c-1.6 0-3.1 0.2-4.5 0.6 c-1.3 0.4-2.6 1-3.7 1.7l0 0c-0.4 0.3-0.8 0.6-1.2 0.9c0-0.1 0-0.2 0-0.2c0-0.5-0.2-1.1-0.6-1.4c-0.4-0.4-0.9-0.6-1.4-0.6h-5.3 c-0.5 0-1.1 0.2-1.4 0.6c-0.4 0.4-0.6 0.9-0.6 1.4c0 1.2 0 2.4 0.1 3.8c0.1 1.3 0.1 2.7 0.1 4.2v25.6c0 0.5 0.2 1.1 0.6 1.4 c0.4 0.4 0.9 0.6 1.4 0.6h5.6c0.5 0 1.1-0.2 1.5-0.6c0.4-0.4 0.6-0.9 0.6-1.4V65.7c0-1.8 0.2-3.3 0.5-4.7c0.3-1.4 0.9-2.5 1.5-3.4 c0.6-0.9 1.4-1.5 2.4-2c1-0.5 2.2-0.7 3.8-0.7c1.1 0 2 0.2 2.6 0.4c0.7 0.3 1.1 0.7 1.5 1.2c0.9 1.2 1.4 2.9 1.4 5.4v20.1 c0 0.5 0.2 1.1 0.6 1.4c0.4 0.4 0.9 0.6 1.4 0.6h5.6c0.5 0 1.1-0.2 1.5-0.6c0.4-0.4 0.6-0.9 0.6-1.4V61.4c0-2.2-0.3-4.2-0.8-6.1 C434.3 53.3 433.4 51.6 432.2 50.1z"/>
	<path fill="#162033" d="M461.3 63.9L475.9 50c0.6-0.6 0.8-1.5 0.5-2.2c-0.3-0.8-1.1-1.3-1.9-1.3h-7.9c-0.5 0-1 0.2-1.4 0.6 l-11.8 11.4V27.9c0-0.5-0.2-1.1-0.6-1.4c-0.4-0.4-0.9-0.6-1.5-0.6h-5.6c-0.5 0-1.1 0.2-1.5 0.6c-0.4 0.4-0.6 0.9-0.6 1.4v54.2 c0 0.5 0.2 1.1 0.6 1.4c0.4 0.4 0.9 0.6 1.5 0.6h5.6c0.5 0 1.1-0.2 1.5-0.6c0.4-0.4 0.6-0.9 0.6-1.4V69.6l13.1 13.9 c0.4 0.4 0.9 0.6 1.5 0.6h8.2c0.8 0 1.6-0.5 1.9-1.3c0.3-0.8 0.2-1.6-0.4-2.2L461.3 63.9z"/>
	<path fill="#162033" d="M511.2 50.9c-1.6-1.7-3.6-3-5.8-3.9c-2.2-0.9-4.6-1.3-7.2-1.3c-2.7 0-5.3 0.5-7.7 1.4 c-2.3 0.9-4.4 2.3-6.1 4.1c-1.7 1.8-3.1 3.9-4 6.3c-1 2.4-1.4 5.1-1.4 7.9c0 2.7 0.4 5.2 1.3 7.6c0.9 2.4 2.1 4.5 3.8 6.3 c1.7 1.8 3.7 3.2 6 4.2c2.4 1.1 5.1 1.6 7.9 1.6c3.4 0 6.4-0.5 9.1-1.7c1.3-0.6 2.4-1.2 3.4-1.9c1-0.8 1.9-1.7 2.9-2.8 c0.4-0.4 0.6-1 0.5-1.5c0-0.6-0.3-1.1-0.8-1.4l-4.2-3.3c-0.8-0.6-2-0.6-2.7 0.2c-0.7 0.7-1.1 1.1-1.4 1.3c-0.3 0.2-0.7 0.5-1.6 0.9 c-1.3 0.7-3 1.1-5.2 1.1c-1.3 0-2.4-0.2-3.4-0.7c-1.1-0.5-2-1.1-2.7-1.9c-0.8-0.8-1.4-1.7-1.9-2.9h0c-0.2-0.4-0.3-0.8-0.5-1.2h24.6 c0.5 0 1.1-0.2 1.5-0.6c0.4-0.4 0.6-0.9 0.6-1.4v-1.8c0-3-0.4-5.7-1.3-8.1C514.1 54.7 512.9 52.6 511.2 50.9z M505.8 60.3h-16.1 c0.5-1.3 1.2-2.4 2.2-3.3c1.5-1.3 3.4-2 6.2-2.1c1.4 0 2.5 0.2 3.5 0.5c1 0.3 1.7 0.8 2.4 1.5c0.7 0.7 1.2 1.4 1.5 2.3 C505.6 59.5 505.7 59.9 505.8 60.3z"/>
	<path fill="#162033" d="M543.8 46.1c-0.5-0.2-1.1-0.3-1.6-0.4h0c-0.5-0.1-0.9-0.1-1.4-0.1c-1.6 0-3.1 0.2-4.5 0.6h0 c-1.4 0.4-2.6 1-3.7 1.7c-0.4 0.3-0.8 0.6-1.2 0.9c0-0.1 0-0.2 0-0.3c0-0.5-0.2-1.1-0.6-1.4c-0.4-0.4-0.9-0.6-1.4-0.6H524 c-0.5 0-1.1 0.2-1.5 0.6c-0.4 0.4-0.6 0.9-0.6 1.4c0 1.2 0 2.4 0.1 3.8v0c0.1 1.3 0.1 2.7 0.1 4.2v25.6c0 0.5 0.2 1.1 0.6 1.4 c0.4 0.4 0.9 0.6 1.4 0.6h5.6c0.5 0 1.1-0.2 1.4-0.6c0.4-0.4 0.6-0.9 0.6-1.4V65.7c0-3.6 0.7-6.2 2-8c0.6-0.8 1.3-1.4 2.2-1.8 c0.9-0.4 2.1-0.7 3.6-0.7c0.9 0 1.7 0.1 2.4 0.3c0.6 0.2 1.2 0.1 1.8-0.3c0.5-0.4 0.8-0.9 0.9-1.6l0.4-5.7 C545.1 47.3 544.6 46.4 543.8 46.1z"/>
</g>
<path fill="#FC544C" d="M112.1 29.8l-50-28.9c-2.2-1.3-5.8-1.3-7.9 0L4 29.8c-2.2 1.3-4 4.3-4 6.9v57.8c0 2.5 1.8 5.6 4 6.9 l50.1 28.9c2.2 1.3 5.7 1.3 7.9 0l50.1-28.9c2.2-1.3 3.9-4.3 3.9-6.9V36.7C116 34.2 114.3 31.1 112.1 29.8z M104.5 76.6l-22 1.9 L61 93.5l-0.2 0.2l-0.1 0l-0.2 0.1l0 0c-0.7 0.4-1.5 0.6-2.4 0.6c-0.9 0-1.7-0.2-2.4-0.6l0 0l0 0c0 0 0 0 0 0l-0.2-0.1l-0.1 0 l-0.2-0.2l-21.5-15l-22-1.9c-1.2-0.1-2.2-1.2-2.2-2.4l0-0.2l0.3-3.5c0.1-1.2 1.2-2.2 2.4-2.2l0.2 0l16.9 1.5L22 54.5 c-0.1-0.3-0.2-0.7-0.2-1c0-0.9 0.5-1.8 1.4-2.2l3.2-1.5c0.3-0.1 0.7-0.2 1-0.2c0.9 0 1.8 0.5 2.2 1.4l9.3 20l14.6 10.2V64.6 L42.4 45.4c-0.2-0.4-0.3-0.8-0.3-1.2c0-0.8 0.4-1.6 1.2-2.1l3-1.8c0.4-0.2 0.8-0.3 1.2-0.3c0.8 0 1.6 0.4 2.1 1.2L58 55.9l8.5-14.6 c0.4-0.8 1.2-1.2 2.1-1.2c0.4 0 0.8 0.1 1.2 0.3l3 1.8c0.8 0.4 1.2 1.2 1.2 2.1c0 0.4-0.1 0.8-0.3 1.2L62.6 64.6v16.6L77.2 71 l9.3-20c0.4-0.9 1.3-1.4 2.2-1.4c0.3 0 0.7 0.1 1 0.2l3.2 1.5c0.9 0.4 1.4 1.3 1.4 2.2c0 0.3-0.1 0.7-0.2 1l-7.2 15.3l16.9-1.5 l0.2 0c1.2 0 2.3 0.9 2.4 2.2l0.3 3.5l0 0.2C106.7 75.4 105.7 76.5 104.5 76.6z"/>
</svg>
